<svg xmlns="http://www.w3.org/2000/svg" xmlns:xlink="http://www.w3.org/1999/xlink" version="1.1" id="id_svgCanvas" x="0px" y="0px" width="38px" height="38px" viewBox="0 0 38 38" style="enable-background:new 0 0 38 38;" xml:space="preserve" preserveAspectRatio="none">
<path style="fill:#231F20;" d="M38,26c0,3.309-2.691,6-6,6H20v4h-2V19.343l-4.177,4.177l-1.414-1.414L19,15.515l6.591,6.591  l-1.414,1.414L20,19.343V30h12c2.206,0,4-1.794,4-4s-1.794-4-4-4h-1c-0.553,0-1-0.447-1-1c0-2.757-2.243-5-5-5c-0.553,0-1-0.448-1-1  c0-3.86-3.141-7-7-7c-3.86,0-7,3.14-7,7v1.25c0,0.513-0.389,0.943-0.899,0.995C3.232,17.839,2,21.246,2,24c0,3.309,2.691,6,6,6h8v2  H8c-4.411,0-8-3.589-8-8c0-4.715,2.901-7.821,8-8.629V15c0-4.962,4.038-9,9-9c4.646,0,8.482,3.54,8.952,8.064  c3.083,0.421,5.534,2.858,5.977,5.936H32C35.309,20,38,22.691,38,26z"></path>
</svg>
