<?xml version="1.0" encoding="UTF-8"?>
<svg width="109px" height="86px" viewBox="0 0 109 86" version="1.1" xmlns="http://www.w3.org/2000/svg" xmlns:xlink="http://www.w3.org/1999/xlink">
    <!-- Generator: Sketch 43.2 (39069) - http://www.bohemiancoding.com/sketch -->
    <title>Full-Stack</title>
    <desc>Created with Sketch.</desc>
    <defs></defs>
    <g id="Splash-page" stroke="none" stroke-width="1" fill="none" fill-rule="evenodd">
        <g id="Desktop-Option-1" transform="translate(-772.000000, -655.000000)">
            <g id="Services" transform="translate(45.000000, 572.000000)">
                <g id="Full-Stack" transform="translate(727.000000, 83.000000)">
                    <path d="M41.9476397,26.9706292 L41.9476397,31.0821403 L28.3975293,37.4996728 L41.9476397,43.9172053 L41.9476397,47.9929642 L24,39.2336579 L24,35.7120593 L41.9476397,26.9706292 Z M60.9556355,21 L64.2805966,22.4658431 L48.4780931,59.0404157 L45.1888842,57.5566965 L60.9556355,21 Z M67.8972399,48.0108403 L67.8972399,43.8993292 L81.4294743,37.4996728 L67.8972399,31.0642641 L67.8972399,26.9885053 L85.8270035,35.7478115 L85.8270035,39.2694102 L67.8972399,48.0108403 Z" id="&lt;/&gt;" fill="#4A4A4A"></path>
                    <g id="monitor" fill-rule="nonzero" fill="#231F20">
                        <path d="M86.0526316,86 L22.9473684,86 L22.9473684,80.2666667 L51.6315789,80.2666667 L51.6315789,68.8 L100.394737,68.8 C101.978105,68.8 103.263158,67.5157333 103.263158,65.9333333 L103.263158,8.6 C103.263158,7.02046667 101.978105,5.73333333 100.394737,5.73333333 L8.60526316,5.73333333 C7.02476316,5.73333333 5.73684211,7.02046667 5.73684211,8.6 L5.73684211,65.9333333 C5.73684211,67.5157333 7.02476316,68.8 8.60526316,68.8 L45.8947368,68.8 L45.8947368,74.5333333 L8.60526316,74.5333333 C3.86089474,74.5333333 0,70.6748 0,65.9333333 L0,8.6 C0,3.85853333 3.86089474,0 8.60526316,0 L100.394737,0 C105.139105,0 109,3.85853333 109,8.6 L109,65.9333333 C109,70.6748 105.139105,74.5333333 100.394737,74.5333333 L57.3684211,74.5333333 L57.3684211,80.2666667 L86.0526316,80.2666667 L86.0526316,86 Z" id="Shape"></path>
                    </g>
                </g>
            </g>
        </g>
    </g>
</svg>