<?xml version="1.0" encoding="UTF-8"?>
<svg width="80px" height="79px" viewBox="0 0 80 79" version="1.1" xmlns="http://www.w3.org/2000/svg" xmlns:xlink="http://www.w3.org/1999/xlink">
    <!-- Generator: Sketch 43.2 (39069) - http://www.bohemiancoding.com/sketch -->
    <title>Marketing</title>
    <desc>Created with Sketch.</desc>
    <defs></defs>
    <g id="Splash-page" stroke="none" stroke-width="1" fill="none" fill-rule="evenodd">
        <g id="Desktop-Option-1" transform="translate(-498.000000, -1100.000000)" fill-rule="nonzero" fill="#000000">
            <g id="Services" transform="translate(45.000000, 572.000000)">
                <g id="Marketing" transform="translate(453.000000, 528.000000)">
                    <g id="Asset-1" transform="translate(22.000000, 0.000000)">
                        <path d="M1.7568709,9.20890792 C1.94589474,8.77427394 2.17350633,8.3566999 2.43708972,7.96098501 C4.74059081,4.31473233 7.99196937,1.87965739 12.1912254,0.655760171 C13.9814131,0.142119303 15.848555,-0.0663165578 17.7109628,0.0395717345 C21.5380963,0.241670236 24.9016411,1.60124197 27.8261488,4.01723769 C27.9402407,4.11122056 27.9554048,4.15856531 27.8405908,4.27092077 C26.29,5.77841542 24.7435011,7.29132762 23.2010941,8.80965739 C23.0978337,8.91070664 23.0400656,8.91989293 22.920919,8.82802998 C21.4816804,7.70494673 19.7439602,7.0085591 17.913151,6.82117773 C13.337727,6.33580975 9.02090877,8.99004874 7.482407,13.2346253 C7.45785558,13.3052891 7.42680525,13.3674732 7.39936543,13.4331906 L1.7568709,9.20890792 Z" id="Shape"></path>
                        <path d="M27.8319256,28.8817131 C27.0690948,29.5927382 26.2254668,30.2158226 25.3175711,30.738758 C23.339826,31.9027788 21.126398,32.6305769 18.831663,32.8713919 C15.0276368,33.2833619 11.4626258,32.562591 8.17273523,30.6384154 C5.3919256,29.0131478 3.27978118,26.7617987 1.80958425,23.9359529 C1.78732471,23.8873332 1.76779884,23.8375587 1.75109409,23.7868522 C1.80019694,23.7515203 1.85074398,23.7161884 1.89912473,23.6815632 L7.39864333,19.5562099 C7.79619945,20.7292475 8.41787894,21.8176902 9.23061269,22.7636403 C10.8192341,24.5881799 12.8158425,25.7279872 15.2363239,26.1060385 C17.3624362,26.4533944 19.5460432,26.1772833 21.5121007,25.3124839 C21.8440917,25.1601772 22.1671329,24.9898478 22.4797155,24.8022912 C22.4956671,24.8200929 22.5127935,24.8368526 22.5309847,24.8524625 L25.6454048,27.2175803 C26.3752079,27.7720557 27.1040481,28.3267666 27.8319256,28.8817131 Z" id="Shape"></path>
                        <path d="M27.8319256,28.8817131 C27.1035667,28.3295931 26.3752079,27.7753533 25.646849,27.2189936 L22.5295405,24.8531692 C22.5113493,24.8375592 22.4942229,24.8207995 22.4782713,24.8029979 C22.9507536,24.4929773 23.3941789,24.1425225 23.803326,23.7557602 C24.8633698,22.713469 25.5204814,21.4598929 25.8591466,20.0360171 C25.9003063,19.8635974 25.7999344,19.8826767 25.6923414,19.8826767 L17.1137856,19.8826767 C16.8639387,19.8826767 16.8639387,19.8826767 16.8639387,19.63394 L16.8639387,13.6981799 C16.8639387,13.5434261 16.8906565,13.4861884 17.0690153,13.4861884 C22.17186,13.4913704 27.2735011,13.4913704 32.3739387,13.4861884 C32.5255799,13.4861884 32.5790153,13.5271734 32.6122319,13.6755675 C32.8550521,14.7199055 32.9704314,15.7887425 32.9559519,16.8596788 C32.8938512,19.5569165 32.3638293,22.1495717 31.1268709,24.5804069 C30.3289434,26.1564924 29.2534127,27.5826299 27.949628,28.7933833 C27.9123173,28.825203 27.8730062,28.854704 27.8319256,28.8817131 L27.8319256,28.8817131 Z" id="Shape"></path>
                        <path d="M7.39936543,19.5569165 L1.89984683,23.6822698 C1.85146608,23.7183084 1.80091904,23.7529336 1.75181619,23.7875589 C1.52344518,23.3788592 1.32742245,22.9536308 1.16547046,22.5156103 C0.537956972,20.9416071 0.164497715,19.2816503 0.0584901532,17.5952891 C-0.140381372,14.7543004 0.415877409,11.9113265 1.67310722,9.34316916 C1.69621444,9.29582441 1.70704595,9.24 1.7568709,9.20890792 L7.39936543,13.4324839 C7.25281751,13.9206734 7.13230475,14.4159886 7.0383151,14.916424 C6.78673156,16.4221444 6.89574105,17.9644604 7.35676149,19.4219486 C7.3740919,19.4650535 7.38636761,19.510985 7.39936543,19.5569165 Z" id="Shape"></path>
                    </g>
                    <g id="instagram" transform="translate(52.000000, 51.000000)">
                        <path d="M24.5,0 L3.5,0 C1.57,0 0,1.57 0,3.5 L0,8 L0,9 L0,24.5 C0,26.43 1.57,28 3.5,28 L24.5,28 C26.43,28 28,26.43 28,24.5 L28,9 L28,8 L28,3.5 C28,1.57 26.43,0 24.5,0 Z M27,24.5 C27,25.879 25.879,27 24.5,27 L3.5,27 C2.122,27 1,25.879 1,24.5 L1,9 L7.293,9 C5.824,10.641 5,12.768 5,15 C5,19.963 9.038,24 14,24 C18.963,24 23,19.963 23,15 C23,12.768 22.177,10.641 20.706,9 L27,9 L27,24.5 Z M18.105,8 L19.152,8.882 C20.962,10.408 22,12.638 22,15 C22,19.411 18.411,23 14,23 C9.589,23 6,19.411 6,15 C6,12.638 7.038,10.408 8.847,8.882 L9.894,8 L1,8 L1,3.5 C1,2.122 2.122,1 3.5,1 L24.5,1 C25.879,1 27,2.122 27,3.5 L27,8 L18.105,8 Z" id="Shape"></path>
                        <path d="M24.5,2 L20.5,2 C20.224,2 20,2.224 20,2.5 L20,6.5 C20,6.776 20.224,7 20.5,7 L24.5,7 C24.776,7 25,6.776 25,6.5 L25,2.5 C25,2.224 24.776,2 24.5,2 Z M24,6 L21,6 L21,3 L24,3 L24,6 Z" id="Shape"></path>
                        <path d="M7,15 C7,18.859 10.14,22 14,22 C17.859,22 21,18.859 21,15 C21,11.14 17.859,8 14,8 C10.14,8 7,11.14 7,15 Z M20,15 C20,18.309 17.309,21 14,21 C10.691,21 8,18.309 8,15 C8,11.691 10.691,9 14,9 C17.309,9 20,11.691 20,15 Z" id="Shape"></path>
                    </g>
                    <g id="facebook" transform="translate(-0.000000, 48.000000)">
                        <path d="M9,8 L9,10 L14,10 L13,15 L9,15 L9,29.5 L3.5,29.5 L3.5,15 L0,15 L0,10 L3.5,10 L3.5,7 C3.5,2.167 5.167,0.5 10,0.5 L14,0.5 L14,5.5 L11.431,5.5 C9.529,5.5 9,6.5 9,8 Z" id="Shape"></path>
                    </g>
                </g>
            </g>
        </g>
    </g>
</svg>