<?xml version="1.0" encoding="UTF-8"?>
<svg width="125px" height="87px" viewBox="0 0 125 87" version="1.1" xmlns="http://www.w3.org/2000/svg" xmlns:xlink="http://www.w3.org/1999/xlink">
    <!-- Generator: Sketch 43.2 (39069) - http://www.bohemiancoding.com/sketch -->
    <title>MVP</title>
    <desc>Created with Sketch.</desc>
    <defs></defs>
    <g id="Splash-page" stroke="none" stroke-width="1" fill="none" fill-rule="evenodd">
        <g id="Desktop-Option-2" transform="translate(-149.000000, -657.000000)">
            <g id="MVP" transform="translate(149.000000, 657.000000)">
                <g>
                    <g id="car" transform="translate(102.838258, 73.533408) scale(-1, 1) translate(-102.838258, -73.533408) translate(80.676516, 60.066815)" fill-rule="nonzero" fill="#000000">
                        <path d="M36.9362364,0 L20.5201313,0 C20.306722,0 15.1848972,0.110901349 10.161569,9.50582995 L4.10402627,9.50582995 C2.69224123,9.50582995 0,10.3296685 0,13.4665924 L0,19.8038124 C0,21.1663147 0.853637463,23.7645749 4.10402627,23.7645749 L7.1410057,23.7645749 C8.04389148,25.6340548 10.0302402,26.9331849 12.3120788,26.9331849 C14.5939174,26.9331849 16.5802661,25.6340548 17.4831519,23.7645749 L28.4819423,23.7645749 C29.3864697,25.6340548 31.3728184,26.9331849 33.6530154,26.9331849 C35.9332124,26.9331849 37.9212027,25.6340548 38.8240885,23.7645749 L40.2194574,23.7645749 C41.6312424,23.7645749 44.3234837,22.9407363 44.3234837,19.8038124 L44.3234837,7.12937246 C44.3234837,4.65785667 42.7803698,0 36.9362364,0 Z M6.56644203,21.3881174 C6.56644203,21.6574492 6.58285813,21.9267811 6.63210645,22.1802699 L4.10402627,22.1802699 C1.78935545,22.1802699 1.64161051,20.1998886 1.64161051,19.8038124 L1.64161051,19.0116599 L7.1410057,19.0116599 C6.76343529,19.7245971 6.56644203,20.5325927 6.56644203,21.3881174 Z M12.3120788,25.3488799 C10.0466563,25.3488799 8.20805253,23.5744583 8.20805253,21.3881174 C8.20805253,19.2017765 10.0466563,17.4273549 12.3120788,17.4273549 C14.5775013,17.4273549 16.4161051,19.2017765 16.4161051,21.3881174 C16.4161051,23.5744583 14.5775013,25.3488799 12.3120788,25.3488799 Z M27.9073786,21.3881174 C27.9073786,21.6574492 27.9237947,21.9267811 27.973043,22.1802699 L17.9920511,22.1802699 C18.0412995,21.9267811 18.0577156,21.6574492 18.0577156,21.3881174 C18.0577156,20.5325927 17.8607223,19.7245971 17.4831519,19.0116599 L28.4819423,19.0116599 C28.1043719,19.7245971 27.9073786,20.5325927 27.9073786,21.3881174 Z M33.6530154,25.3488799 C31.3875929,25.3488799 29.5489891,23.5744583 29.5489891,21.3881174 C29.5489891,19.2017765 31.3875929,17.4273549 33.6530154,17.4273549 C35.9184379,17.4273549 37.7570416,19.2017765 37.7570416,21.3881174 C37.7570416,23.5744583 35.9184379,25.3488799 33.6530154,25.3488799 Z M42.6818732,19.8038124 C42.6818732,22.0376824 40.62986,22.1802699 40.2194574,22.1802699 L39.3329877,22.1802699 C39.382236,21.9267811 39.3986522,21.6574492 39.3986522,21.3881174 C39.3986522,20.5325927 39.2016589,19.7245971 38.8240885,19.0116599 L42.6818732,19.0116599 L42.6818732,19.8038124 Z M42.6818732,14.2587449 L41.0402627,14.2587449 L41.0402627,15.8430499 L42.6818732,15.8430499 L42.6818732,17.4273549 L37.658545,17.4273549 C36.6226888,16.4450858 35.2125454,15.8430499 33.6530154,15.8430499 C32.0934854,15.8430499 30.6817004,16.4450858 29.6474857,17.4273549 L16.3176084,17.4273549 C15.2833938,16.4450858 13.8716088,15.8430499 12.3120788,15.8430499 C10.7525488,15.8430499 9.32434768,16.4450858 8.30654916,17.4273549 L1.64161051,17.4273549 L1.64161051,13.4665924 C1.64161051,11.2327224 3.69362364,11.0901349 4.10402627,11.0901349 L11.1793675,11.0901349 L11.409193,10.6465295 C15.9892863,1.82195074 20.4872991,1.58430499 20.5201313,1.58430499 L36.9362364,1.58430499 C42.5833765,1.58430499 42.6818732,6.90756976 42.6818732,7.12937246 L42.6818732,14.2587449 Z M14.7744946,11.0901349 L39.3986522,11.0901349 L39.3986522,3.16860998 L22.9825471,3.16860998 C16.4161051,3.16860998 14.7744946,11.0901349 14.7744946,11.0901349 Z M27.9073786,4.75291497 L37.7570416,4.75291497 L37.7570416,9.50582995 L27.9073786,9.50582995 L27.9073786,4.75291497 Z M26.2657681,9.50582995 L17.0054432,9.50582995 C17.8443062,7.54129176 19.6172456,4.75291497 22.9825471,4.75291497 L26.2657681,4.75291497 L26.2657681,9.50582995 Z" id="Shape"></path>
                    </g>
                    <path d="M27.8965785,52.2193764 L37.4222395,36.330735" id="Line" stroke="#000000" stroke-width="2" stroke-linecap="round"></path>
                    <path id="Line-decoration-1" d="M34.4419271,47.1361844 L37.4222395,36.330735 L29.2958948,44.0510019" stroke="#000000" stroke-width="2" stroke-linecap="round"></path>
                    <path d="M81.8429238,36.330735 L92.5349922,52.1224944" id="Line-Copy" stroke="#000000" stroke-width="2" stroke-linecap="round"></path>
                    <path id="Line-Copy-decoration-1" d="M83.9958333,44.8614501 L92.5349922,52.1224944 L88.9641598,41.4975636" stroke="#000000" stroke-width="2" stroke-linecap="round"></path>
                    <g id="motorbike" transform="translate(61.333593, 15.016704) scale(-1, 1) translate(-61.333593, -15.016704) translate(40.046656, 0.000000)" fill-rule="nonzero" fill="#000000">
                        <path d="M42.5738725,7.50835189 C42.5738725,7.50835189 39.9130054,7.1955039 34.2956195,7.50835189 C30.7525272,7.70482043 27.1999741,8.75974388 24.8347589,8.75974388 C23.0549346,8.75974388 19.711703,6.63488029 15.94155,5.58245963 L17.31574,2.50278396 L18.9217211,2.50278396 C19.5745205,2.50278396 20.1043287,1.94341175 20.1043287,1.25139198 C20.1043287,0.559372216 19.5745205,0 18.9217211,0 L16.556506,0 C16.0550804,0 15.6317068,0.334121659 15.4602287,0.800890869 L13.5396741,5.1031765 C13.0689962,5.04561247 12.5959532,5.00556793 12.1217276,5.00556793 C11.7492062,5.00556793 11.2241284,5.27211442 10.9071896,5.78393374 C10.218912,6.89391843 9.46086055,8.75974388 9.46086055,8.75974388 C2.66086703,7.82119989 0.39380832,11.6792414 0.39380832,11.6792414 L1.33752916,12.8004886 C1.33752916,12.8004886 2.88792768,11.2625278 6.28437662,11.2625278 C7.79220127,11.2625278 9.19359124,11.4840242 10.4849987,11.9457879 L8.99018274,15.2957642 C8.38587027,15.1193179 7.75317522,15.0167038 7.09564541,15.0167038 C3.17766654,15.0167038 0,18.379194 0,22.5250557 C0,26.6709173 3.17766654,30.0334076 7.09564541,30.0334076 C11.0136243,30.0334076 14.1912908,26.6709173 14.1912908,22.5250557 C14.1912908,19.9672105 12.9803007,17.7096993 11.1330677,16.3544418 L12.6255184,13.009471 C14.7447512,14.3985161 16.4701756,16.6660384 17.7391135,20.0222717 C18.3043999,21.5176851 19.030521,22.5250557 20.1043287,22.5250557 C23.6521514,22.5250557 27.1999741,21.2736637 27.1999741,21.2736637 C27.1999741,21.2736637 27.6907562,21.5264449 28.4121468,21.8968569 C28.3967729,22.104588 28.3825816,22.312319 28.3825816,22.5250557 C28.3825816,26.6709173 31.5602482,30.0334076 35.4782271,30.0334076 C39.3962059,30.0334076 42.5738725,26.6709173 42.5738725,22.5250557 C42.5738725,18.379194 39.3962059,15.0167038 35.4782271,15.0167038 C33.031412,15.0167038 30.8719706,16.3281626 29.5971196,18.3228814 C28.869816,18.1526921 28.3825816,18.0413182 28.3825816,18.0413182 L29.5651892,15.0167038 C29.5651892,15.0167038 36.2492872,13.4099165 37.7441032,12.6177854 L37.1527994,10.2201183 C39.6670231,9.17645741 42.5738725,8.75974388 42.5738725,8.75974388 L42.5738725,7.50835189 Z M11.8260757,22.5250557 C11.8260757,25.2893806 9.70802553,27.5306236 7.09564541,27.5306236 C4.48326529,27.5306236 2.36521514,25.2893806 2.36521514,22.5250557 C2.36521514,19.7607308 4.48326529,17.5194878 7.09564541,17.5194878 C7.3912973,17.5194878 7.67630573,17.5557781 7.95658372,17.6108394 L5.99463777,22.005728 C5.7190902,22.631424 5.97453344,23.3772536 6.56701983,23.668828 C7.15950622,23.9604023 7.86197512,23.6901016 8.13870529,23.0631542 L10.0935556,18.6832823 C11.1425285,19.6005526 11.8260757,20.9720782 11.8260757,22.5250557 Z M36.3699132,20.0948524 C35.7679659,19.8483282 33.9396546,19.3740507 32.1834824,18.9423204 C33.0361424,18.0650947 34.1950978,17.5194878 35.4782271,17.5194878 C38.0906072,17.5194878 40.2086573,19.7607308 40.2086573,22.5250557 C40.2086573,25.2893806 38.0906072,27.5306236 35.4782271,27.5306236 C33.0562468,27.5306236 31.0824747,25.597223 30.8045619,23.1144613 C32.3797952,23.911598 34.0011502,24.7149916 34.586541,24.9565103 C35.8542963,25.4770894 37.2817036,24.8113488 37.774851,23.4698566 C38.2668157,22.1258616 37.6376685,20.6154315 36.3699132,20.0948524 Z" id="Shape"></path>
                    </g>
                    <g id="bike" transform="translate(20.023328, 69.948775) scale(-1, 1) translate(-20.023328, -69.948775) translate(0.000000, 55.610245)" fill-rule="nonzero" fill="#000000">
                        <path d="M33.3722136,15.4414939 C31.9216347,15.4414939 30.5834089,15.9047387 29.4899127,16.6845342 L26.5208981,13.7407237 L27.037055,12.327827 L29.690146,13.1870358 C30.2719349,13.3789515 30.9026698,13.0657098 31.0962286,12.4866538 C31.2897875,11.9075977 30.9738638,11.2844232 30.3898501,11.0925075 L23.5329726,8.87113826 C22.9511837,8.67922255 22.3204489,8.99246428 22.12689,9.5715203 C21.9333312,10.1505763 22.2492548,10.7737509 22.8332685,10.9656666 L24.9212567,11.6417835 L24.3962005,13.0778424 L11.9383532,11.4752359 L13.2409819,8.11671098 C13.4612386,7.54758163 13.1742375,6.90896556 12.6024603,6.69057872 C12.4311496,6.62550385 12.0273458,6.6089594 11.5234253,6.60785643 L13.0040392,2.2059277 L14.4268079,2.2059277 C15.0408567,2.2059277 15.5392151,1.7117999 15.5392151,1.10296385 C15.5392151,0.494127805 15.0408567,0 14.4268079,0 L12.2019937,0 C11.7225462,0 11.2976067,0.303315059 11.1474317,0.754427274 L8.9226175,7.37221038 C8.72794626,7.95016344 9.04275747,8.57554394 9.6256588,8.76745965 C9.74246155,8.80496042 9.86037671,8.82371081 9.97717945,8.82371081 L10.5812165,8.82371081 L7.96483497,15.5672318 C7.54768231,15.4867154 7.11606834,15.4414939 6.67444272,15.4414939 C2.98903793,15.4414939 0,18.4051578 0,22.059277 C0,25.7133963 2.98903793,28.6770601 6.67444272,28.6770601 C10.3598475,28.6770601 13.3488854,25.7133963 13.3488854,22.059277 C13.3488854,19.6250358 12.0195589,17.5040363 10.0450363,16.354748 L10.2530564,15.8198105 L21.6162951,22.9901785 C21.7953927,23.1015779 22.0023004,23.1622409 22.2136578,23.1622409 L26.7978875,23.1622409 C27.3296181,26.2902464 30.0661396,28.6770601 33.3722136,28.6770601 C37.0576184,28.6770601 40.0466563,25.7133963 40.0466563,22.059277 C40.0466563,18.4051578 37.0576184,15.4414939 33.3722136,15.4414939 Z M11.120734,22.059277 C11.120734,24.4946212 9.12952523,26.4678235 6.67444272,26.4678235 C4.2193602,26.4678235 2.22815146,24.4946212 2.22815146,22.059277 C2.22815146,19.6239328 4.2182478,17.6507305 6.67444272,17.6507305 C6.83351693,17.6507305 6.9848043,17.6805105 7.13942889,17.697055 L5.60096985,21.663313 C5.38071324,22.2324424 5.66771427,22.8710584 6.24060394,23.0894453 C6.37298039,23.1390786 6.50758165,23.1622409 6.6399581,23.1622409 C7.08603335,23.1622409 7.50763565,22.8942207 7.67894635,22.455241 L9.22964187,18.459203 C10.3698592,19.2577488 11.120734,20.5680699 11.120734,22.059277 Z M11.1162843,13.5940295 L23.618628,15.2021508 L21.7064001,20.4324053 L11.0673384,13.7197673 L11.1162843,13.5940295 Z M26.7978875,20.9563132 L23.8822684,20.9563132 L25.6832556,16.0304766 L27.9214187,18.2485369 C27.3574283,19.0415679 26.9669734,19.9614398 26.7978875,20.9563132 Z M29.5421959,19.8555553 L30.6523782,20.9563132 L29.0838841,20.9563132 C29.1851132,20.564761 29.3419626,20.197474 29.5421959,19.8555553 Z M33.3722136,26.4678235 C31.3042487,26.4678235 29.5800177,25.0604417 29.0838841,23.1622409 L33.337729,23.1622409 C33.7871414,23.1622409 34.1942824,22.8942207 34.3655931,22.4817122 C34.5391287,22.0692037 34.4434616,21.5949292 34.1242008,21.2794816 L31.1051279,18.2860377 C31.7714597,17.8922796 32.5401331,17.6507305 33.3722136,17.6507305 C35.8272961,17.6507305 37.8185048,19.6239328 37.8185048,22.059277 C37.8185048,24.4946212 35.8272961,26.4678235 33.3722136,26.4678235 Z" id="Shape"></path>
                    </g>
                </g>
            </g>
        </g>
    </g>
</svg>