<?xml version="1.0" encoding="UTF-8"?>
<svg width="86px" height="66px" viewBox="0 0 86 66" version="1.1" xmlns="http://www.w3.org/2000/svg" xmlns:xlink="http://www.w3.org/1999/xlink">
    <!-- Generator: Sketch 43.2 (39069) - http://www.bohemiancoding.com/sketch -->
    <title>Native</title>
    <desc>Created with Sketch.</desc>
    <defs></defs>
    <g id="Splash-page" stroke="none" stroke-width="1" fill="none" fill-rule="evenodd">
        <g id="Desktop-Option-1" transform="translate(-190.000000, -890.000000)" fill-rule="nonzero" fill="#000000">
            <g id="Services" transform="translate(45.000000, 572.000000)">
                <g id="Native" transform="translate(145.000000, 318.000000)">
                    <g id="windows" transform="translate(0.000000, 38.000000)">
                        <polygon id="Shape" points="9.09090909 3.10769231 9.09090909 13.4230769 0 13.4230769 0 4.86730769"></polygon>
                        <polygon id="Shape" points="0 14.5769231 9.09090909 14.5769231 9.09090909 24.8911538 0 23.1326923"></polygon>
                        <polygon id="Shape" points="25 0.0326923077 25 13.4230769 10.2272727 13.4230769 10.2272727 2.88846154"></polygon>
                        <polygon id="Shape" points="10.2272727 14.5769231 25 14.5769231 25 27.9673077 10.2272727 25.1115385"></polygon>
                    </g>
                    <g id="play-store" transform="translate(58.000000, 36.000000)">
                        <path d="M26.975,14.119 L1.975,0.619 C1.665,0.449 1.29,0.459 0.99,0.639 C0.685,0.819 0.5,1.149 0.5,1.499 L0.5,28.499 C0.5,28.85 0.685,29.18 0.99,29.359 C1.145,29.454 1.325,29.499 1.5,29.499 C1.665,29.499 1.825,29.459 1.975,29.379 L26.975,15.879 C27.3,15.704 27.5,15.364 27.5,14.999 C27.5,14.634 27.3,14.294 26.975,14.119 Z M17.74,11.404 L15.849,13.499 L10.389,7.435 L17.74,11.404 Z M5.145,25.395 L2.5,26.824 L2.5,3.174 L5.145,4.604 L14.5,14.999 L5.15,25.395 L5.145,25.395 Z M10.39,22.564 L15.85,16.499 L17.741,18.595 L10.39,22.564 Z M19.55,17.614 L17.2,14.999 L19.55,12.384 L24.395,14.999 L19.55,17.614 Z" id="Shape"></path>
                    </g>
                    <g id="apple" transform="translate(29.000000, 0.000000)">
                        <path d="M25.694,22.032 C23.58,21.233 22.228,19.487 22.08,17.36 C21.924,15.14 23.112,13.113 25.258,11.938 L25.78,11.652 L25.407,11.187 C23.938,9.355 21.271,7.5 19.018,7.5 C17.508,7.5 16.528,7.964 15.663,8.374 C14.951,8.71 14.338,9 13.518,9 C13.461,9 13.414,8.989 13.359,8.987 C15.023,8.908 16.843,7.941 17.953,6.516 C19.19,4.929 19.759,3.074 19.512,1.427 L19.444,0.97 L18.984,1.002 C17.285,1.12 15.298,2.175 14.152,3.568 C12.848,5.151 12.24,7.028 12.527,8.591 L12.575,8.853 C12.226,8.745 11.899,8.589 11.533,8.406 C10.68,7.981 9.713,7.5 8.018,7.5 C5.675,7.5 3.095,9.141 1.445,11.68 C-0.934,15.344 -0.231,21.702 3.116,26.798 C4.482,28.876 6.192,31 8.518,31 C9.928,31 10.637,30.566 11.263,30.184 C11.857,29.821 12.37,29.507 13.553,29.5 C14.65,29.5 15.113,29.8 15.649,30.147 C16.267,30.547 16.966,31 18.518,31 C20.797,31 22.577,28.76 24.016,26.567 C24.767,25.424 25.159,24.542 25.653,23.424 L26.193,22.22 L25.694,22.032 Z M14.923,4.203 C15.785,3.155 17.253,2.306 18.568,2.061 C18.629,3.811 17.629,5.306 17.165,5.901 C16.274,7.046 14.791,7.871 13.46,7.987 C13.359,6.256 14.535,4.674 14.923,4.203 Z M24.738,23.02 C24.243,24.137 23.885,24.945 23.179,26.019 C21.887,27.987 20.322,30 18.518,30 C17.262,30 16.767,29.679 16.193,29.308 C15.608,28.929 14.946,28.5 13.516,28.5 C12.086,28.508 11.372,28.945 10.742,29.33 C10.154,29.689 9.646,30 8.518,30 C6.667,30 5.171,28.104 3.952,26.249 C0.432,20.892 0.465,15.025 2.284,12.225 C3.731,9.997 6.036,8.5 8.018,8.5 C9.478,8.5 10.296,8.907 11.087,9.301 C11.778,9.645 12.492,10 13.518,10 C14.562,10 15.339,9.633 16.09,9.277 C16.897,8.896 17.732,8.5 19.018,8.5 C20.569,8.5 22.738,9.708 24.253,11.375 C22.118,12.768 20.915,15.039 21.082,17.43 C21.245,19.75 22.674,21.751 24.853,22.763 L24.738,23.02 Z" id="Shape"></path>
                    </g>
                </g>
            </g>
        </g>
    </g>
</svg>