<svg xmlns="http://www.w3.org/2000/svg" xmlns:xlink="http://www.w3.org/1999/xlink" version="1.1" id="id_svgCanvas" x="0px" y="0px" width="38px" height="38px" viewBox="0 0 38 38" style="enable-background:new 0 0 38 38;" xml:space="preserve" preserveAspectRatio="none">
<path style="fill:#231F20;" d="M27.824,27.824l-0.717,2.869l6.206,6.206C32.032,37.601,30.563,38,29,38c-4.963,0-9-4.037-9-9  c0-0.789,0.112-1.552,0.304-2.281l-9.023-9.023C10.551,17.888,9.79,18,9,18c-4.962,0-9-4.038-9-9c0-1.563,0.399-3.033,1.101-4.313  l6.206,6.206l2.869-0.717l0.717-2.869L4.687,1.101C5.967,0.399,7.437,0,9,0c4.962,0,9,4.038,9,9c0,0.79-0.112,1.551-0.304,2.282  l7.438,7.438l-1.414,1.414l-6.823-6.823l-1.494-1.494C15.784,10.955,16,10.002,16,9c0-3.86-3.14-7-7-7  C8.813,2,8.625,2.008,8.438,2.023l4.67,4.67l-1.283,5.131l-5.131,1.283l-4.67-4.67C2.008,8.625,2,8.813,2,9c0,3.86,3.14,7,7,7  c1.002,0,1.954-0.215,2.817-0.597l10.781,10.778C22.216,27.045,22,27.997,22,29c0,3.859,3.141,7,7,7  c0.188,0,0.375-0.008,0.563-0.023l-4.67-4.67l1.283-5.131l5.131-1.283l4.67,4.67C35.992,29.375,36,29.188,36,29c0-3.859-3.141-7-7-7  c-1.003,0-1.955,0.216-2.817,0.598L24.7,21.115C25.98,20.414,27.44,20,29,20c4.963,0,9,4.037,9,9c0,1.563-0.399,3.032-1.101,4.313  l-6.206-6.206L27.824,27.824z"></path>
</svg>
