<?xml version="1.0" encoding="UTF-8"?>
<svg width="111px" height="95px" viewBox="0 0 111 95" version="1.1" xmlns="http://www.w3.org/2000/svg" xmlns:xlink="http://www.w3.org/1999/xlink">
    <!-- Generator: Sketch 43.2 (39069) - http://www.bohemiancoding.com/sketch -->
    <title>UX-UI</title>
    <desc>Created with Sketch.</desc>
    <defs></defs>
    <g id="Splash-page" stroke="none" stroke-width="1" fill="none" fill-rule="evenodd">
        <g id="Desktop-Option-1" transform="translate(-480.000000, -638.000000)" fill-rule="nonzero">
            <g id="Services" transform="translate(45.000000, 572.000000)">
                <g id="UX-UI" transform="translate(435.000000, 66.000000)">
                    <path d="M44.0197222,60 L0.646944444,60 L0.963888889,57.9847059 C2.43777778,48.6176471 5.55083333,46.1735294 14.7888889,43.1329412 C15.87,42.7782353 16.2705556,41.76 16.4163889,41.1229412 C11.8683333,39.1235294 8.72222222,34.89 8.72222222,30 L8.72222222,21.1764706 L12.6111111,21.1764706 L12.6111111,30 C12.6111111,34.8652941 16.9725,38.8235294 22.3333333,38.8235294 C27.6941667,38.8235294 32.0555556,34.8652941 32.0555556,30 L32.0555556,22.9411765 C32.0555556,18.0758824 27.6941667,14.1176471 22.3333333,14.1176471 C19.4477778,14.1176471 17.6802778,14.9347059 15.8116667,15.7994118 C13.9352778,16.6641176 11.8119444,17.6470588 8.72222222,17.6470588 L8.72222222,14.1176471 C10.8786111,14.1176471 12.2766667,13.4717647 14.0461111,12.6529412 C16.1383333,11.6858824 18.5144444,10.5882353 22.3333333,10.5882353 C26.1386111,10.5882353 29.5841667,12.0123529 32.0555556,14.3029412 L32.0555556,12.3529412 C32.0555556,5.54117647 38.1630556,0 45.6666667,0 C49.4875,0 51.8616667,1.09764706 53.9558333,2.06470588 C55.7252778,2.88352941 57.1233333,3.52941176 59.2777778,3.52941176 L59.2777778,7.05882353 C56.1880556,7.05882353 54.0627778,6.07588235 52.1883333,5.21117647 C50.3197222,4.34647059 48.5522222,3.52941176 45.6666667,3.52941176 C40.3058333,3.52941176 35.9444444,7.48764706 35.9444444,12.3529412 L35.9444444,19.4117647 C35.9444444,24.2770588 40.3058333,28.2352941 45.6666667,28.2352941 C51.0275,28.2352941 55.3888889,24.2770588 55.3888889,19.4117647 L55.3888889,10.5882353 L59.2777778,10.5882353 L59.2777778,19.4117647 C59.2777778,24.2947059 56.1394444,28.5247059 51.5972222,30.5294118 C51.7566667,31.0817647 52.1747222,31.9252941 53.2597222,32.3135294 C62.4725,35.61 65.5758333,38.1211765 67.0361111,47.3982353 L67.3530556,49.4117647 L43.7222222,49.4117647 L43.7222222,45.8823529 L62.8205556,45.8823529 C61.5197222,39.69 59.1825,38.2252941 51.8344444,35.5976471 C49.4933333,34.7576471 48.3597222,33.0405882 47.8911111,31.5988235 C46.4580556,31.8158824 44.9161111,31.8176471 43.4772222,31.6041176 C43.0280556,33.1747059 41.8827778,35.0629412 39.4483333,35.8641176 C38.4372222,36.1958824 37.5097222,36.4676471 36.6541667,36.7164706 C34.7077778,37.2864706 33.2883333,37.7029412 32.2675,38.4352941 C31.1319444,39.5382353 29.7747222,40.4505882 28.2638889,41.1176471 C28.4233333,41.67 28.8394444,42.5135294 29.9263889,42.9017647 C39.1391667,46.1982353 42.2405556,48.7094118 43.7027778,57.9864706 L44.0197222,60 Z M5.18138889,56.4705882 L39.4872222,56.4705882 C38.1863889,50.2782353 35.8491667,48.8135294 28.5011111,46.1858824 C26.1580556,45.3476471 25.0244444,43.6288235 24.5577778,42.1870588 C23.1227778,42.4041176 21.5827778,42.4058824 20.1438889,42.1923529 C19.6947222,43.7629412 18.5494444,45.6511765 16.115,46.4523529 C8.92444444,48.8170588 6.49777778,50.2905882 5.18138889,56.4705882 Z M35.9444444,28.05 L35.9444444,30 C35.9444444,31.1664706 35.7655556,32.2976471 35.4291667,33.3670588 C35.4408333,33.3652941 35.4505556,33.3617647 35.4622222,33.3582353 C36.2769444,33.12 37.1616667,32.8623529 38.1222222,32.5447059 C39.2052778,32.19 39.6058333,31.1717647 39.7516667,30.5347059 C38.3283333,29.91 37.0391667,29.0647059 35.9444444,28.05 Z" id="Shape" fill="#231F20"></path>
                    <path d="M41,49 L41,95 L111,95 L111,49 L41,49 Z M74.7931034,92.9090909 L43.4137931,92.9090909 L43.4137931,51.0909091 L74.7931034,51.0909091 L74.7931034,92.9090909 Z M108.586207,92.9090909 L77.2068966,92.9090909 L77.2068966,51.0909091 L108.586207,51.0909091 L108.586207,92.9090909 Z M69.9655172,55.2727273 L48.2413793,55.2727273 L48.2413793,67.8181818 L69.9655172,67.8181818 L69.9655172,55.2727273 Z M67.5517241,65.7272727 L50.6551724,65.7272727 L50.6551724,57.3636364 L67.5517241,57.3636364 L67.5517241,65.7272727 Z M57.8965517,69.9090909 L48.2413793,69.9090909 L48.2413793,80.3636364 L57.8965517,80.3636364 L57.8965517,69.9090909 Z M55.4827586,78.2727273 L50.6551724,78.2727273 L50.6551724,72 L55.4827586,72 L55.4827586,78.2727273 Z M60.3103448,69.9090909 L69.9655172,69.9090909 L69.9655172,72 L60.3103448,72 L60.3103448,69.9090909 Z M60.3103448,74.0909091 L69.9655172,74.0909091 L69.9655172,76.1818182 L60.3103448,76.1818182 L60.3103448,74.0909091 Z M60.3103448,78.2727273 L69.9655172,78.2727273 L69.9655172,80.3636364 L60.3103448,80.3636364 L60.3103448,78.2727273 Z M69.9655172,84.5454545 L48.2413793,84.5454545 L48.2413793,82.4545455 L69.9655172,82.4545455 L69.9655172,84.5454545 Z M102.672414,71.9790909 C102.672414,71.9790909 107.789655,67.5463636 103.519655,63.8433636 C102.262069,62.7560909 100.936897,62.3818182 99.6817241,62.3818182 C96.6886207,62.3818182 94.1275862,64.5981818 94.1275862,64.5981818 L82.1817241,74.9272727 L79.6206897,84.5454545 L90.7265517,82.3290909 L102.672414,71.9790909 Z M99.6817241,64.4727273 C100.451724,64.4727273 101.13,64.7445455 101.805862,65.3279091 C104.219655,67.3979091 101.516207,70.0115455 100.958621,70.4945455 L95.8413793,66.0618182 C96.3965517,65.6018182 98.1103448,64.4727273 99.6817241,64.4727273 Z M94.1275862,67.5463636 L99.2448276,71.9790909 L90.7265517,79.3579091 L85.6068966,74.9272727 L94.1275862,67.5463636 Z M82.8310345,81.7645455 L84.1851724,76.6648182 L88.7231034,80.5957273 L82.8310345,81.7645455 Z" id="Shape" fill="#000000"></path>
                </g>
            </g>
        </g>
    </g>
</svg>