<?xml version="1.0" encoding="UTF-8"?>
<svg width="45px" height="45px" viewBox="0 0 45 45" version="1.1" xmlns="http://www.w3.org/2000/svg" xmlns:xlink="http://www.w3.org/1999/xlink">
    <!-- Generator: Sketch 42 (36781) - http://www.bohemiancoding.com/sketch -->
    <title>Gh_Icon</title>
    <desc>Created with Sketch.</desc>
    <defs></defs>
    <g id="Symbols" stroke="none" stroke-width="1" fill="none" fill-rule="evenodd">
        <g id="Gh_Icon">
            <g>
                <ellipse id="GH" fill="#4182C4" cx="22.5" cy="22.5" rx="22.5" ry="22.5"></ellipse>
                <g id="Orion_githubWhite" transform="translate(7.000000, 7.000000)" fill-rule="nonzero">
                    <g id="Github">
                        <path d="M16,0 C8.3872022,0.00537310275 1.90129151,5.6119905 0.684921979,13.2388167 C-0.531447551,20.8656429 3.88060442,28.2624424 11.1030303,30.7047619 C11.8787879,30.852381 12.169697,30.3603175 12.169697,29.9666667 L12.169697,27.0142857 C7.85454545,27.9492063 6.93333333,25.1444444 6.93333333,25.1444444 C6.20606061,23.3238095 5.18787879,22.831746 5.18787879,22.831746 C3.78181818,21.847619 5.28484848,21.8968254 5.28484848,21.8968254 C6.83636364,21.9952381 7.66060606,23.5206349 7.66060606,23.5206349 C9.06666667,25.931746 11.2969697,25.2428571 12.169697,24.8492063 C12.237686,24.0501266 12.5810355,23.3009402 13.1393939,22.7333333 C9.6969697,22.3396825 6.06060606,20.9619048 6.06060606,14.9587302 C6.03218532,13.3907949 6.60599703,11.873154 7.66060606,10.7269841 C7.20271722,9.36177734 7.25447472,7.87349253 7.80606061,6.54444444 C7.80606061,6.54444444 9.11515152,6.1015873 12.0727273,8.16825397 C13.3367298,7.81626046 14.6408118,7.63428087 15.9515152,7.62698413 C17.2624525,7.63091534 18.5669703,7.81295575 19.830303,8.16825397 C22.7878788,6.15079365 24.0969697,6.54444444 24.0969697,6.54444444 C24.6485556,7.87349253 24.7003131,9.36177734 24.2424242,10.7269841 C25.3046364,11.868314 25.8796866,13.3892307 25.8424242,14.9587302 C25.8424242,21.0111111 22.2060606,22.3396825 18.7636364,22.7333333 C19.5082069,23.504117 19.8958422,24.5591543 19.830303,25.6365079 L19.830303,29.9666667 C19.830303,30.4095238 20.1212121,30.852381 20.8969697,30.7047619 C28.1193956,28.2624424 32.5314476,20.8656429 31.315078,13.2388167 C30.0987085,5.6119905 23.6127978,0.00537310275 16,0 Z" id="Shape" fill="#FFFFFF"></path>
                        <path d="M6.35151515,22.5857143 C6.3030303,22.684127 6.20606061,22.684127 6.10909091,22.6349206 C6.01212121,22.5857143 5.91515152,22.4873016 5.96363636,22.3888889 C6.01212121,22.2904762 6.10909091,22.2904762 6.25454545,22.3396825 C6.35151515,22.4380952 6.4,22.5365079 6.35151515,22.5857143 L6.35151515,22.5857143 Z M6.98181818,23.3238095 C6.87048382,23.3859919 6.73205746,23.3660293 6.64219806,23.2748327 C6.55233866,23.1836361 6.53266883,23.0431499 6.59393939,22.9301587 C6.70635124,22.8746468 6.8407334,22.8941299 6.93333333,22.9793651 C6.98543331,23.018021 7.01995737,23.0763794 7.02908446,23.1412198 C7.03821155,23.2060601 7.0211692,23.2718948 6.98181818,23.3238095 L6.98181818,23.3238095 Z M7.61212121,24.2095238 C7.47859851,24.2520224 7.33448833,24.1893418 7.27272727,24.0619048 C7.17395626,23.9498321 7.17395626,23.7803266 7.27272727,23.668254 C7.40624997,23.6257554 7.55036015,23.688436 7.61212121,23.815873 C7.70909091,23.9634921 7.70909091,24.1603175 7.61212121,24.2095238 L7.61212121,24.2095238 Z M8.43636364,25.0952381 C8.33939394,25.1936508 8.19393939,25.1444444 8.04848485,25.0460317 C7.9030303,24.8984127 7.85454545,24.7507937 7.95151515,24.652381 C8.07505135,24.5693672 8.23979338,24.5902664 8.33939394,24.7015873 C8.40682562,24.7377754 8.45591671,24.8013534 8.47441709,24.8764562 C8.49291747,24.9515589 8.47908218,25.0311026 8.43636364,25.0952381 L8.43636364,25.0952381 Z M9.6,25.5873016 C9.55151515,25.7349206 9.40606061,25.784127 9.21212121,25.7349206 C9.01818182,25.6857143 8.92121212,25.5380952 8.96969697,25.3904762 C9.01818182,25.2428571 9.16363636,25.1936508 9.35757576,25.2428571 C9.5030303,25.3412698 9.64848485,25.4888889 9.6,25.5873016 Z M10.8606061,25.6857143 C10.8606061,25.8333333 10.7151515,25.931746 10.5212121,25.931746 C10.3272727,25.931746 10.1818182,25.8333333 10.1818182,25.6857143 C10.1818182,25.5380952 10.3272727,25.4396825 10.5212121,25.4396825 C10.7151515,25.4888889 10.8606061,25.5873016 10.8606061,25.6857143 Z M12.0242424,25.4888889 C12.0242424,25.6365079 11.9272727,25.7349206 11.7333333,25.784127 C11.5859661,25.8316602 11.4256882,25.7706615 11.3454545,25.6365079 C11.3454545,25.4888889 11.4424242,25.3904762 11.6363636,25.3412698 C11.8787879,25.2920635 12.0242424,25.3904762 12.0242424,25.4888889 Z" id="Shape" fill="#4182C4"></path>
                    </g>
                </g>
            </g>
        </g>
    </g>
</svg>