<?xml version="1.0" encoding="UTF-8"?>
<svg width="45px" height="45px" viewBox="0 0 45 45" version="1.1" xmlns="http://www.w3.org/2000/svg" xmlns:xlink="http://www.w3.org/1999/xlink">
    <!-- Generator: Sketch 42 (36781) - http://www.bohemiancoding.com/sketch -->
    <title>Ins_Icon</title>
    <desc>Created with Sketch.</desc>
    <defs>
        <linearGradient x1="95.3971354%" y1="5.34364968%" x2="21.1941507%" y2="91.9877987%" id="linearGradient-1">
            <stop stop-color="#7007B6" offset="0%"></stop>
            <stop stop-color="#E0552F" offset="72.022744%"></stop>
            <stop stop-color="#F28646" offset="100%"></stop>
        </linearGradient>
    </defs>
    <g id="Symbols" stroke="none" stroke-width="1" fill="none" fill-rule="evenodd">
        <g id="Ins_Icon">
            <g>
                <ellipse id="IN" fill="url(#linearGradient-1)" cx="22.5" cy="22.5" rx="22.5" ry="22.5"></ellipse>
                <g id="Orion_instagram" transform="translate(9.000000, 10.000000)" fill-rule="nonzero" fill="#FFFFFF">
                    <g id="Instagram">
                        <path d="M3.62424242,0.393939394 L22.3757576,0.393939394 C23.2393695,0.370812484 24.0745155,0.703714975 24.6854003,1.31459974 C25.296285,1.92548451 25.6291875,2.7606305 25.6060606,3.62424242 L25.6060606,22.3757576 C25.6291875,23.2393695 25.296285,24.0745155 24.6854003,24.6854003 C24.0745155,25.296285 23.2393695,25.6291875 22.3757576,25.6060606 L3.62424242,25.6060606 C2.7606305,25.6291875 1.92548451,25.296285 1.31459974,24.6854003 C0.703714975,24.0745155 0.370812484,23.2393695 0.393939394,22.3757576 L0.393939394,3.62424242 C0.370812484,2.7606305 0.703714975,1.92548451 1.31459974,1.31459974 C1.92548451,0.703714975 2.7606305,0.370812484 3.62424242,0.393939394 L3.62424242,0.393939394 Z M18.7515152,3.19090909 C18.1205717,3.19090909 17.6090909,3.70238985 17.6090909,4.33333333 L17.6090909,7.05151515 C17.6090909,7.68245864 18.1205717,8.19393939 18.7515152,8.19393939 L21.5878788,8.19393939 C22.2188223,8.19393939 22.730303,7.68245864 22.730303,7.05151515 L22.730303,4.33333333 C22.730303,3.70238985 22.2188223,3.19090909 21.5878788,3.19090909 L18.7515152,3.19090909 Z M22.769697,11.069697 L20.5636364,11.069697 C20.7702492,11.7734626 20.8763492,12.5028999 20.8787879,13.2363636 C20.8787879,17.4121212 17.3727273,20.8393939 13.0393939,20.8393939 C8.70606061,20.8393939 5.2,17.4515152 5.2,13.2363636 C5.2024387,12.5028999 5.30853867,11.7734626 5.51515152,11.069697 L3.19090909,11.069697 L3.19090909,21.7060606 C3.18835723,21.9680326 3.29129811,22.2200181 3.47654909,22.4052691 C3.66180007,22.5905201 3.91378555,22.6934609 4.17575758,22.6909091 L21.7454545,22.6909091 C22.0074266,22.6934609 22.259412,22.5905201 22.444663,22.4052691 C22.629914,22.2200181 22.7328549,21.9680326 22.730303,21.7060606 L22.769697,11.069697 L22.769697,11.069697 Z M13.0393939,8.03636364 C10.2781501,7.99752649 8.00570462,10.1995086 7.95757576,12.9606061 C7.98239852,14.2826936 8.53207271,15.5406145 9.48538711,16.4569788 C10.4387015,17.373343 11.7173579,17.8728872 13.0393939,17.8454545 C15.8006378,17.8842917 18.0730833,15.6823096 18.1212121,12.9212121 C18.0963894,11.5991245 17.5467152,10.3412036 16.5934008,9.42483942 C15.6400864,8.5084752 14.3614299,8.008931 13.0393939,8.03636364 L13.0393939,8.03636364 Z" id="Shape"></path>
                    </g>
                </g>
            </g>
        </g>
    </g>
</svg>