<?xml version="1.0" encoding="UTF-8"?>
<svg width="45px" height="45px" viewBox="0 0 45 45" version="1.1" xmlns="http://www.w3.org/2000/svg" xmlns:xlink="http://www.w3.org/1999/xlink">
    <!-- Generator: Sketch 42 (36781) - http://www.bohemiancoding.com/sketch -->
    <title>Tw_Icon</title>
    <desc>Created with Sketch.</desc>
    <defs></defs>
    <g id="Symbols" stroke="none" stroke-width="1" fill="none" fill-rule="evenodd">
        <g id="Tw_Icon">
            <g>
                <ellipse id="TW" fill="#32ABE3" cx="22.5" cy="22.5" rx="22.5" ry="22.5"></ellipse>
                <g id="Orion_twitter" transform="translate(8.000000, 11.000000)" fill-rule="nonzero" fill="#FAF7F7">
                    <g id="Twitter">
                        <path d="M28,2.71250281 C26.9934079,3.19288912 25.9142373,3.50333544 24.80625,3.63125281 C25.9326013,2.87410653 26.7782442,1.76708317 27.2125,0.48125281 C26.38125,1.00625281 24.54375,1.75000281 23.625,1.75000281 C22.5072622,0.640558936 20.9998169,0.0124567438 19.425,2.81025275e-06 C17.892912,-0.00150829769 16.42314,0.606442187 15.3397897,1.68979251 C14.2564394,2.77314284 13.6484889,4.24291483 13.65,5.77500281 C13.6480804,6.2014047 13.692084,6.62677356 13.78125,7.04375281 C9.45,6.91250281 4.375,4.76875281 1.53125,1.05000281 C0.0511467676,3.65721429 0.811183991,6.96337621 3.28125,8.66250281 C2.625,8.75000281 1.35625,8.61875281 0.7875,8.05000281 C0.74375,10.0625028 1.70625,12.7312528 5.25,13.6937528 C4.55,14.0437528 3.36875,13.9562528 2.84375,13.8687528 C3.01875,15.5750028 5.425,17.8062528 8.00625,17.8062528 C7.0875,18.8562528 3.9375,20.8250028 0,20.2125028 C2.72907439,21.8724967 5.86196969,22.7503128 9.05625,22.7500028 C13.4814166,22.7793548 17.7235716,20.9859851 20.7857949,17.7913412 C23.8480183,14.5966974 25.4603005,10.2824651 25.24375,5.86250281 L25.24375,5.64375281 C26.3515785,4.86346735 27.2893002,3.86620774 28,2.71250281 L28,2.71250281 Z" id="Shape"></path>
                    </g>
                </g>
            </g>
        </g>
    </g>
</svg>